<svg width="172" height="102" viewBox="0 0 172 102" fill="none" xmlns="http://www.w3.org/2000/svg">
<path d="M110.201 63.0878H98.3351L89.6138 44.9016C84.8581 47.4885 82.1317 53.4835 77.2986 57.4491C74.8356 59.4629 71.9543 61.2599 68.3759 62.4836C66.7494 63.0258 63.992 63.7384 62.9541 63.8468C62.5204 63.8933 62.2106 63.8778 62.1486 63.7074C62.1021 63.5835 62.226 63.4905 62.6753 63.2737C63.202 63.0258 65.3862 62.1118 66.7494 61.1669C68.4533 59.9741 69.4293 58.6884 69.5067 57.697C69.042 56.0395 65.696 52.3836 69.1194 45.6451C70.3432 43.2286 71.4121 41.4936 72.1711 39.7431C73.0386 37.7293 73.6583 34.91 73.8751 32.8033C73.8906 32.6793 73.9061 32.6793 73.9836 32.7568C75.6411 34.4453 82.0852 41.0753 81.1558 47.6744C83.2935 46.8534 87.0113 44.3439 88.7308 43.0117C90.5432 41.602 91.7205 40.1304 93.6414 40.0994C95.3609 40.0684 95.5003 40.8895 96.879 41.0753C97.2198 41.1218 97.7155 41.0599 97.9788 40.9204C98.0872 40.874 98.0563 40.75 97.9013 40.7191C96.0425 40.2853 95.5932 38.7672 93.1767 38.7672C91.0079 38.7672 89.2885 40.75 88.0492 41.571L81.9613 28.8686C79.3744 23.5707 80.1489 19.7135 85.7411 12.123L110.201 63.0878Z" fill="black"/>
<path d="M133.22 89.2357L129.069 84.2941C131.253 83.7984 132.585 82.5437 132.585 80.3595C132.585 77.8964 130.494 76.6572 127.845 76.6572H119.557V89.2357H121.757V84.48H126.683L130.478 89.2357H133.22ZM121.757 78.609H127.907C129.425 78.609 130.323 79.3216 130.323 80.5144C130.323 81.7382 129.378 82.5282 127.907 82.5282H121.757V78.609Z" fill="black"/>
<path d="M44.7679 76.6572L38.2772 89.2357H40.7712L42.1499 86.4319H49.539L50.9177 89.2357H53.4582L46.9676 76.6572H44.7679ZM43.1104 84.48L45.8367 78.9498L48.5631 84.48H43.1104Z" fill="black"/>
<path d="M65.0916 78.3149C67.1674 78.3149 68.8714 79.0894 69.7388 80.4681L71.5203 79.2753C70.281 77.5403 68.0813 76.332 65.1071 76.332C60.2895 76.332 57.5166 79.4767 57.5166 82.9621C57.5166 86.432 60.2895 89.5767 65.1071 89.5767C68.0968 89.5767 70.281 88.3684 71.5203 86.6334L69.7388 85.4251C68.8714 86.7883 67.1674 87.5784 65.0916 87.5784C61.854 87.5784 59.7628 85.7659 59.7628 82.9466C59.7628 80.1273 61.854 78.3149 65.0916 78.3149Z" fill="black"/>
<path d="M85.0593 78.3149C87.1196 78.3149 88.839 79.0894 89.7065 80.4681L91.488 79.2753C90.2487 77.5403 88.049 76.332 85.0748 76.332C80.2572 76.332 77.4843 79.4767 77.4843 82.9621C77.4843 86.432 80.2572 89.5767 85.0748 89.5767C88.049 89.5767 90.2487 88.3684 91.488 86.6334L89.7065 85.4406C88.839 86.8038 87.1351 87.5939 85.0593 87.5939C81.8217 87.5939 79.7305 85.7814 79.7305 82.9621C79.7305 80.1428 81.8217 78.3149 85.0593 78.3149Z" fill="black"/>
<path d="M105.027 76.332C100.209 76.332 97.4363 79.4767 97.4363 82.9621C97.4363 86.432 100.209 89.5767 105.027 89.5767C109.844 89.5767 112.617 86.432 112.617 82.9621C112.617 79.4767 109.86 76.332 105.027 76.332ZM105.027 87.6093C101.789 87.6093 99.698 85.7814 99.698 82.9466C99.698 80.1118 101.789 78.2839 105.027 78.2839C108.264 78.2839 110.356 80.1118 110.356 82.9466C110.371 85.7814 108.28 87.6093 105.027 87.6093Z" fill="black"/>
</svg>
