<svg width="172" height="102" viewBox="0 0 172 102" fill="none" xmlns="http://www.w3.org/2000/svg">
<path d="M43.4741 29.9651H41.7971V30.9966H43.4096V31.5769H41.7971V32.8664H43.4741V33.4466H41.1522V29.2559H43.4741V29.9651Z" fill="black"/>
<path d="M48.2467 30.2874C48.1822 30.2229 48.1822 30.094 48.0532 30.0295C47.9242 29.9006 47.7952 29.9006 47.6018 29.9006C47.2148 29.9006 47.0213 30.1585 47.0213 30.4164C47.0213 30.5453 47.0858 30.7387 47.4728 30.9321L47.9242 31.1256C48.6982 31.4479 48.8917 31.8993 48.8917 32.3506C48.8917 33.1243 48.3112 33.7045 47.5373 33.7045C47.0858 33.7045 46.7633 33.5111 46.5698 33.2532C46.3118 32.9953 46.2473 32.7374 46.2473 32.415L46.8923 32.2861C46.8923 32.4795 46.9568 32.6729 47.0858 32.8019C47.2148 32.9308 47.4083 33.0598 47.6018 33.0598C47.9887 33.0598 48.3112 32.8019 48.3112 32.3506C48.3112 31.8993 47.9887 31.7703 47.7307 31.6414L47.3438 31.4479C47.0213 31.319 46.5053 30.9966 46.5053 30.4164C46.5053 29.8361 46.9568 29.3203 47.7307 29.3203C48.1822 29.3203 48.4402 29.5137 48.5692 29.5782C48.6982 29.7071 48.8272 29.8361 48.8917 30.0295L48.2467 30.2874Z" fill="black"/>
<path d="M53.0196 29.9659V33.512H52.3746V29.9659H51.4072V29.3857H53.987V29.9659H53.0196Z" fill="black"/>
<path d="M60.9529 29.9659H60.2434L60.5659 29.3857H61.5979V33.5765H60.9529V29.9659Z" fill="black"/>
<path d="M67.5957 31.7058C67.7247 31.8993 67.7892 32.1571 67.7892 32.3506C67.7892 32.8019 67.6602 33.0598 67.4667 33.2532C67.2732 33.4466 66.9507 33.64 66.4992 33.64C66.0477 33.64 65.7253 33.4466 65.5318 33.2532C65.3383 33.0598 65.2093 32.8019 65.2093 32.3506C65.2093 32.1571 65.2738 31.8993 65.4028 31.7058C65.4673 31.5769 65.6608 31.4479 65.8543 31.3835C65.6608 31.319 65.5318 31.19 65.4673 31.0611C65.3383 30.8677 65.3383 30.6743 65.3383 30.4808C65.3383 30.1585 65.4673 29.8361 65.6608 29.6427C65.7898 29.5137 66.0477 29.3203 66.4992 29.3203C66.9507 29.3203 67.2087 29.5137 67.3377 29.6427C67.5957 29.9006 67.6602 30.1585 67.6602 30.4808C67.6602 30.6743 67.5957 30.8677 67.5312 31.0611C67.4667 31.19 67.3377 31.319 67.1442 31.3835C67.3377 31.4479 67.5312 31.5769 67.5957 31.7058ZM65.9833 31.8348C65.8543 31.9637 65.7898 32.1571 65.7898 32.3506C65.7898 32.4795 65.8543 32.6729 65.9833 32.8664C66.0477 32.9953 66.2412 33.0598 66.4992 33.0598C66.7572 33.0598 66.8862 32.9308 67.0152 32.8664C67.1442 32.7374 67.2087 32.544 67.2087 32.3506C67.2087 32.1571 67.1442 31.9637 67.0152 31.8348C66.8862 31.7058 66.6927 31.6414 66.4992 31.6414C66.3057 31.6414 66.1122 31.7058 65.9833 31.8348ZM66.0478 30.0295C65.9188 30.1585 65.8543 30.2874 65.8543 30.4808C65.8543 30.6743 65.9188 30.8032 66.0478 30.9321C66.1767 31.0611 66.3702 31.1256 66.4992 31.1256C66.6282 31.1256 66.8217 31.0611 66.9507 30.9321C67.0152 30.8677 67.1442 30.6743 67.1442 30.4808C67.1442 30.2874 67.0797 30.1585 66.9507 30.0295C66.8217 29.9006 66.6927 29.8361 66.4992 29.8361C66.3057 29.8361 66.1122 29.9006 66.0478 30.0295Z" fill="black"/>
<path d="M72.9489 29.5793L71.917 30.8043C71.9815 30.8043 72.1105 30.8043 72.175 30.8043C72.691 30.8043 72.9489 30.9977 73.1424 31.1911C73.4004 31.449 73.5294 31.7714 73.5294 32.1582C73.5294 32.5451 73.4004 32.9319 73.1424 33.1898C72.8199 33.5122 72.3685 33.5766 72.046 33.5766C71.659 33.5766 71.272 33.5122 70.9495 33.1898C70.7561 32.9319 70.5626 32.674 70.5626 32.2227C70.5626 31.9003 70.6271 31.7069 70.7561 31.449C70.885 31.1266 71.0785 30.9332 71.272 30.6753L72.433 29.1924L72.9489 29.5793ZM71.4655 31.578C71.3365 31.7069 71.2075 31.9003 71.2075 32.2227C71.2075 32.4161 71.272 32.674 71.4655 32.8674C71.5945 32.9964 71.8525 33.1253 72.046 33.1253C72.2395 33.1253 72.4975 33.0608 72.6265 32.8674C72.7555 32.7385 72.8844 32.4806 72.8844 32.2227C72.8844 32.0293 72.8199 31.7714 72.6265 31.578C72.4975 31.449 72.2395 31.3201 72.046 31.3201C71.8525 31.3201 71.659 31.3845 71.4655 31.578Z" fill="black"/>
<path d="M78.9471 29.965H77.6572L77.4637 30.6742C77.5282 30.6742 77.5927 30.6742 77.6572 30.6742C77.9797 30.6742 78.3666 30.8032 78.6246 31.0611C78.8181 31.2545 79.0116 31.5768 79.0116 32.1571C79.0116 32.6084 78.8826 32.9953 78.5601 33.2532C78.2377 33.5755 77.8507 33.7045 77.3992 33.7045C77.1412 33.7045 76.8832 33.64 76.6252 33.5111C76.5607 33.4466 76.3027 33.3176 76.1093 33.0597L76.5607 32.6729C76.5607 32.7374 76.6897 32.9308 76.8832 33.0597C77.0122 33.1242 77.2057 33.1887 77.3992 33.1887C77.7217 33.1887 77.9152 33.0597 78.0442 32.9308C78.1732 32.8018 78.3022 32.6084 78.3022 32.2216C78.3022 31.8992 78.1732 31.7058 78.0442 31.5768C77.8507 31.3834 77.5927 31.3189 77.3347 31.3189C77.1412 31.3189 77.0122 31.3189 76.8187 31.3834C76.6897 31.4479 76.5607 31.5124 76.4317 31.5768L77.0767 29.4492H78.8181L78.9471 29.965Z" fill="black"/>
<path d="M96.3616 29.3203V32.8664H97.5871V33.4466H95.7167V29.2559C95.7167 29.3203 96.3616 29.3203 96.3616 29.3203Z" fill="black"/>
<path d="M104.295 31.448C104.295 32.673 103.392 33.6401 102.102 33.6401C100.876 33.6401 99.9088 32.673 99.9088 31.448C99.9088 30.223 100.812 29.2559 102.102 29.2559C103.392 29.2559 104.295 30.223 104.295 31.448ZM103.65 31.448C103.65 30.5453 103.005 29.9006 102.102 29.9006C101.199 29.9006 100.554 30.5453 100.554 31.448C100.554 32.3506 101.199 32.9953 102.102 32.9953C103.005 32.9953 103.65 32.3506 103.65 31.448Z" fill="black"/>
<path d="M107.262 33.5112V29.0625L110.293 32.2217V29.3204H110.938V33.7691L107.907 30.6099V33.5112H107.262Z" fill="black"/>
<path d="M115.001 29.3203C115.582 29.3203 116.098 29.3848 116.549 29.7072C117.065 30.094 117.323 30.6743 117.323 31.3835C117.323 32.0927 117.065 32.673 116.485 33.0598C115.969 33.3822 115.517 33.4466 114.937 33.4466H114.098V29.2559C114.098 29.3203 115.001 29.3203 115.001 29.3203ZM114.743 32.9309H115.001C115.324 32.9309 115.775 32.9309 116.098 32.6085C116.356 32.4151 116.678 31.9638 116.678 31.448C116.678 30.9322 116.42 30.4809 116.098 30.223C115.711 29.9651 115.259 29.9651 115.001 29.9651H114.743V32.9309Z" fill="black"/>
<path d="M124.418 31.448C124.418 32.673 123.515 33.6401 122.225 33.6401C120.999 33.6401 120.032 32.673 120.032 31.448C120.032 30.223 120.935 29.2559 122.225 29.2559C123.515 29.2559 124.418 30.223 124.418 31.448ZM123.773 31.448C123.773 30.5453 123.128 29.9006 122.225 29.9006C121.322 29.9006 120.677 30.5453 120.677 31.448C120.677 32.3506 121.322 32.9953 122.225 32.9953C123.128 32.9953 123.773 32.3506 123.773 31.448Z" fill="black"/>
<path d="M127.385 33.5112V29.0625L130.416 32.2217V29.3204H131.061V33.7691L128.03 30.6099V33.5112H127.385Z" fill="black"/>
<path d="M86.945 27.4512H87.59V36.4131H86.945V27.4512Z" fill="black"/>
<path d="M41.539 72.5192H43.6029V70.585H44.3768V75.4206H43.6029V73.164H41.539V75.4206H40.765V70.585H41.539V72.5192Z" fill="black"/>
<path d="M52.5678 73.0339C52.5678 74.4524 51.4714 75.5484 50.0524 75.5484C48.569 75.5484 47.537 74.4524 47.537 73.0339C47.537 71.6155 48.6335 70.5195 50.0524 70.5195C51.4714 70.5195 52.5678 71.6155 52.5678 73.0339ZM51.7938 73.0339C51.7938 71.9379 51.0199 71.1642 49.9879 71.1642C48.956 71.1642 48.182 71.9379 48.182 73.0339C48.182 74.13 48.956 74.9037 49.9879 74.9037C51.0199 74.8392 51.7938 74.13 51.7938 73.0339Z" fill="black"/>
<path d="M56.8891 71.2942V75.485H56.1151V71.2942H55.0187V70.585H57.9855V71.2942H56.8891Z" fill="black"/>
<path d="M63.5324 71.2931H61.5974V72.5181H63.4679V73.2273H61.5974V74.7747H63.5324V75.4839H60.8235V70.6484H63.5324V71.2931Z" fill="black"/>
<path d="M67.4669 70.585V74.7758H68.8858V75.485H66.6929V70.6495L67.4669 70.585Z" fill="black"/>
<path d="M73.9166 71.6801C73.8521 71.5512 73.7876 71.4867 73.7231 71.3578C73.5941 71.2288 73.4006 71.1643 73.2071 71.1643C72.7556 71.1643 72.4976 71.4222 72.4976 71.7446C72.4976 71.8735 72.5621 72.1314 73.0136 72.3249L73.5296 72.5183C74.4325 72.9051 74.6905 73.4209 74.6905 73.9367C74.6905 74.8393 74.0456 75.4841 73.1426 75.4841C72.5621 75.4841 72.2396 75.2906 71.9816 74.9683C71.7237 74.6459 71.5947 74.3235 71.5947 74.0012L72.3041 73.8722C72.3041 74.1301 72.3686 74.3235 72.4976 74.517C72.6266 74.7104 72.8201 74.8393 73.1426 74.8393C73.5941 74.8393 73.9166 74.517 73.9166 74.0012C73.9166 73.4854 73.5296 73.292 73.2071 73.163L72.7556 72.9696C72.3686 72.7762 71.7882 72.4538 71.7882 71.7446C71.7882 71.0999 72.3041 70.4551 73.2071 70.4551C73.7231 70.4551 74.0456 70.6485 74.1745 70.7775C74.3035 70.9064 74.4325 71.0354 74.5615 71.2933L73.9166 71.6801Z" fill="black"/>
<path d="M85.0097 73.6788L84.4292 74.3235L85.3322 75.4196H84.4292L83.9777 74.8393C83.8488 74.9683 83.7198 75.0972 83.5908 75.1617C83.2683 75.3551 83.0103 75.4841 82.5588 75.4841C81.6559 75.4841 81.0754 74.9038 81.0754 74.0656C81.0754 73.4209 81.3979 73.0985 81.7848 72.8406C81.9138 72.7762 82.1073 72.5828 82.1718 72.5828C81.9783 72.3893 81.7203 72.067 81.7203 71.5512C81.7203 70.9709 82.0428 70.4551 82.8813 70.4551C83.6553 70.4551 84.0422 70.9709 84.0422 71.4867C84.0422 71.8091 83.9132 72.0025 83.8488 72.1314C83.7198 72.2604 83.5908 72.4538 83.2683 72.7117L84.1067 73.7433L84.6872 73.0985L85.0097 73.6788ZM82.5588 73.163C82.4298 73.2275 82.1718 73.4209 82.0428 73.5499C81.8493 73.7433 81.7848 74.0012 81.7848 74.1946C81.7848 74.5814 82.1073 74.9038 82.5588 74.9038C82.7523 74.9038 82.9458 74.8393 83.0748 74.7104C83.2038 74.5814 83.4618 74.388 83.5263 74.3235L82.5588 73.163ZM82.9458 72.0025C83.1393 71.8735 83.2683 71.6801 83.2683 71.5512C83.2683 71.3578 83.1393 71.0999 82.8168 71.0999C82.4943 71.0999 82.3653 71.2933 82.3653 71.5512C82.3653 71.7446 82.4298 71.8735 82.5588 72.0025L82.7523 72.2604L82.9458 72.0025Z" fill="black"/>
<path d="M92.4272 70.585C93.0077 70.585 93.3947 70.6495 93.7172 70.8429C94.2332 71.1653 94.2976 71.81 94.2976 72.0034C94.2976 72.7127 93.8462 73.2284 93.2012 73.3574L94.7491 75.4206H93.8462L92.4272 73.4219H92.2983V75.4206H91.5243V70.585H92.4272ZM92.2983 72.8416H92.5562C92.7497 72.8416 93.5882 72.8416 93.5882 72.0679C93.5882 71.3587 92.9432 71.2942 92.5562 71.2942H92.2983V72.8416Z" fill="black"/>
<path d="M100.296 71.2931H98.3607V72.5181H100.231V73.2273H98.3607V74.7747H100.296V75.4839H97.5867V70.6484H100.296V71.2931Z" fill="black"/>
<path d="M105.52 71.6801C105.455 71.5512 105.391 71.4867 105.326 71.3578C105.197 71.2288 105.004 71.1643 104.81 71.1643C104.359 71.1643 104.101 71.4222 104.101 71.7446C104.101 71.8735 104.166 72.1314 104.617 72.3249L105.133 72.5183C106.036 72.9051 106.294 73.4209 106.294 73.9367C106.294 74.8393 105.649 75.4841 104.746 75.4841C104.166 75.4841 103.843 75.2906 103.585 74.9683C103.327 74.6459 103.198 74.3235 103.198 74.0012L103.908 73.8722C103.908 74.1301 103.972 74.3235 104.101 74.517C104.23 74.7104 104.423 74.8393 104.746 74.8393C105.197 74.8393 105.52 74.517 105.52 74.0012C105.52 73.4854 105.133 73.292 104.81 73.163L104.359 72.9696C103.972 72.7762 103.392 72.4538 103.392 71.7446C103.392 71.0999 103.908 70.4551 104.81 70.4551C105.326 70.4551 105.649 70.6485 105.778 70.7775C105.907 70.9064 106.036 71.0354 106.165 71.2933L105.52 71.6801Z" fill="black"/>
<path d="M114.162 73.0339C114.162 74.4524 113.066 75.5484 111.647 75.5484C110.228 75.5484 109.132 74.4524 109.132 73.0339C109.132 71.6155 110.228 70.5195 111.647 70.5195C113.066 70.5195 114.162 71.6155 114.162 73.0339ZM113.388 73.0339C113.388 71.9379 112.614 71.1642 111.583 71.1642C110.551 71.1642 109.777 71.9379 109.777 73.0339C109.777 74.13 110.551 74.9037 111.583 74.9037C112.614 74.9037 113.388 74.13 113.388 73.0339Z" fill="black"/>
<path d="M118.161 70.585C118.742 70.585 119.129 70.6495 119.451 70.8429C119.967 71.1653 120.032 71.81 120.032 72.0034C120.032 72.7127 119.58 73.2284 118.935 73.3574L120.483 75.4206H119.58L118.161 73.4219H118.032V75.4206H117.258V70.585H118.161ZM118.032 72.8416H118.29C118.484 72.8416 119.322 72.8416 119.322 72.0679C119.322 71.3587 118.677 71.2942 118.29 71.2942H118.032V72.8416Z" fill="black"/>
<path d="M124.675 71.2942V75.485H123.901V71.2942H122.805V70.585H125.772V71.2942H124.675Z" fill="black"/>
<path d="M130.674 71.6801C130.609 71.5512 130.545 71.4867 130.48 71.3578C130.351 71.2288 130.158 71.1643 129.964 71.1643C129.513 71.1643 129.255 71.4222 129.255 71.7446C129.255 71.8735 129.319 72.1314 129.771 72.3249L130.287 72.5183C131.19 72.9051 131.448 73.4209 131.448 73.9367C131.448 74.8393 130.803 75.4841 129.9 75.4841C129.319 75.4841 128.997 75.2906 128.739 74.9683C128.481 74.6459 128.352 74.3235 128.352 74.0012L129.061 73.8722C129.061 74.1301 129.126 74.3235 129.255 74.517C129.384 74.7104 129.577 74.8393 129.9 74.8393C130.351 74.8393 130.674 74.517 130.674 74.0012C130.674 73.4854 130.287 73.292 129.964 73.163L129.513 72.9696C129.126 72.7762 128.545 72.4538 128.545 71.7446C128.545 71.0999 129.061 70.4551 129.964 70.4551C130.48 70.4551 130.803 70.6485 130.932 70.7775C131.061 70.9064 131.19 71.0354 131.319 71.2933L130.674 71.6801Z" fill="black"/>
<path d="M22.6413 48.7918H22.2543L22.1253 48.405C22.0608 48.1471 21.9963 47.8892 21.9318 47.6958C21.8673 47.5024 21.7383 47.3734 21.6094 47.2445C21.4804 47.1155 21.2224 47.051 20.9644 46.9866C20.7064 46.9221 20.3194 46.9221 19.8679 46.9221H17.2881V55.3037C17.2881 55.8195 17.2881 56.2063 17.3526 56.4642C17.417 56.7866 17.4815 56.98 17.6105 57.1734C17.7395 57.3668 17.933 57.4313 18.191 57.4958C18.449 57.5603 18.7715 57.5603 19.1585 57.5603V57.9471H13.8052V57.5603C14.1922 57.5603 14.5147 57.5603 14.7727 57.4958C15.0307 57.4313 15.2242 57.3024 15.3531 57.1734C15.4821 56.98 15.5466 56.7866 15.6111 56.4642C15.6756 56.1418 15.6756 55.755 15.6756 55.3037V46.9221H13.0958C12.6443 46.9221 12.2573 46.9221 11.9993 46.9866C11.7413 47.051 11.5478 47.1155 11.3543 47.2445C11.2253 47.3734 11.0964 47.5024 11.0319 47.6958C10.9674 47.8892 10.9029 48.1471 10.8384 48.405L10.7094 48.7918H10.3224L10.5159 46.1484H22.5123L22.6413 48.7918Z" fill="black"/>
<path d="M28.3169 55.2392C28.3169 55.755 28.3169 56.1418 28.3814 56.3997C28.4459 56.7221 28.5104 56.9155 28.6394 57.1089C28.7684 57.3024 28.9619 57.3668 29.2199 57.4313C29.4779 57.4958 29.8004 57.4958 30.1874 57.4958V57.9471H24.8341V57.5603C25.2211 57.5603 25.5436 57.5603 25.8016 57.4958C26.0595 57.4313 26.253 57.3024 26.382 57.1734C26.511 56.98 26.5755 56.7866 26.64 56.4642C26.7045 56.1418 26.7045 55.755 26.7045 55.3037V48.8563C26.7045 48.3405 26.7045 47.9537 26.64 47.6313C26.5755 47.3089 26.511 47.1155 26.382 46.9221C26.253 46.7287 26.0595 46.6642 25.8016 46.5997C25.5436 46.5353 25.2211 46.5353 24.8341 46.5353V46.1484H30.1874V46.5353C29.8004 46.5353 29.4779 46.5353 29.2199 46.5997C28.9619 46.6642 28.7684 46.7287 28.6394 46.9221C28.5104 47.1155 28.4459 47.3089 28.3814 47.6313C28.3169 47.9537 28.3169 48.3405 28.3169 48.8563V51.3708H35.0246V48.8563C35.0246 48.3405 35.0246 47.9537 34.9601 47.6313C34.8956 47.3089 34.8311 47.1155 34.7021 46.9221C34.5731 46.7287 34.3797 46.6642 34.1217 46.5997C33.8637 46.5353 33.5412 46.5353 33.1542 46.5353V46.1484H38.5075V46.5353C38.1205 46.5353 37.798 46.5353 37.54 46.5997C37.282 46.6642 37.0885 46.7287 36.9595 46.9221C36.8305 47.1155 36.7015 47.3089 36.7015 47.6313C36.637 47.9537 36.637 48.3405 36.637 48.8563V55.3037C36.637 55.8195 36.637 56.2063 36.7015 56.4642C36.766 56.7866 36.8305 56.98 36.9595 57.1734C37.0885 57.3668 37.282 57.4313 37.54 57.4958C37.798 57.5603 38.1205 57.5603 38.5075 57.5603V57.9471H33.1542V57.5603C33.5412 57.5603 33.8637 57.5603 34.1217 57.4958C34.3797 57.4313 34.5731 57.3024 34.7021 57.1734C34.8311 56.98 34.8956 56.7866 34.9601 56.4642C35.0246 56.1418 35.0246 55.755 35.0246 55.3037V52.08H28.3169V55.2392Z" fill="black"/>
<path d="M41.0227 57.5603C41.4097 57.5603 41.7322 57.5603 41.9902 57.4958C42.2481 57.4313 42.4416 57.3024 42.5706 57.1734C42.6996 56.98 42.7641 56.7866 42.8286 56.4642C42.8931 56.1418 42.8931 55.755 42.8931 55.3037V48.8563C42.8931 48.3405 42.8931 47.9537 42.8286 47.6313C42.7641 47.3089 42.6996 47.1155 42.5706 46.9221C42.4416 46.7287 42.2481 46.6642 41.9902 46.5997C41.7322 46.5353 41.4097 46.5353 41.0227 46.5353V46.1484H50.0523L50.2458 48.7274H49.8588L49.7298 48.3405C49.6653 48.0826 49.6008 47.8247 49.5363 47.6958C49.4718 47.5668 49.3428 47.3734 49.2138 47.2445C49.0848 47.1155 48.8268 47.051 48.5688 46.9866C48.3109 46.9221 47.9239 46.9221 47.4724 46.9221H44.57V51.4353H45.473C45.989 51.4353 46.3759 51.4353 46.6984 51.3708C47.0209 51.3063 47.2144 51.2418 47.4079 51.1129C47.6014 50.9839 47.6659 50.7905 47.7304 50.5326C47.7949 50.2747 47.7949 49.9524 47.7949 49.5655H48.1819V54.0787H47.7949C47.7949 53.6274 47.7949 53.305 47.7304 53.1116C47.6659 52.9182 47.6014 52.6603 47.4079 52.5313C47.2144 52.4024 47.0209 52.2734 46.6984 52.2734C46.3759 52.2089 45.989 52.2089 45.473 52.2089H44.5055V55.1103C44.5055 55.626 44.5055 56.0129 44.57 56.2708C44.6345 56.5932 44.699 56.7866 44.828 56.98C44.957 57.1734 45.1505 57.2379 45.4085 57.3024C45.6665 57.3668 45.989 57.3668 46.3759 57.3668H48.0529C48.5043 57.3668 48.8913 57.3668 49.1493 57.3024C49.4073 57.2379 49.6008 57.1734 49.7943 57.0445C49.9878 56.9155 50.0523 56.7866 50.1168 56.5931C50.1813 56.3997 50.2458 56.1418 50.3103 55.8839L50.4393 55.4971H50.8262L50.6972 57.9471H41.0227V57.5603Z" fill="black"/>
<path d="M59.1467 57.5603C59.5337 57.5603 59.8562 57.5603 60.1142 57.4958C60.3722 57.4313 60.5657 57.3024 60.6947 57.1734C60.8236 56.98 60.8881 56.7866 60.9526 56.4642C61.0171 56.1418 61.0171 55.755 61.0171 55.3037V48.8563C61.0171 48.3405 61.0171 47.9537 60.9526 47.6313C60.8881 47.3089 60.8236 47.1155 60.6947 46.9221C60.5657 46.7287 60.3722 46.6642 60.1142 46.5997C59.8562 46.5353 59.5337 46.5353 59.1467 46.5353V46.1484H64.5V46.5353C64.113 46.5353 63.7905 46.5353 63.5325 46.5997C63.2745 46.6642 63.081 46.7287 62.952 46.9221C62.8231 47.1155 62.7586 47.3089 62.6941 47.6313C62.6296 47.9537 62.6296 48.3405 62.6296 48.8563V54.9813C62.6296 55.4971 62.6296 55.8839 62.6941 56.1418C62.7586 56.4642 62.8231 56.6576 62.952 56.851C63.081 57.0445 63.2745 57.1089 63.5325 57.1734C63.7905 57.2379 64.113 57.2379 64.5 57.2379H66.8864C67.3378 57.2379 67.7248 57.2379 67.9828 57.1734C68.2408 57.1089 68.4343 57.0445 68.6278 56.9155C68.8213 56.7866 68.8858 56.6576 68.9503 56.4642C69.0148 56.2708 69.0793 56.0129 69.1438 55.755L69.2728 55.3682H69.6597L69.5307 58.0116H59.2112V57.5603H59.1467Z" fill="black"/>
<path d="M74.2391 56.0775C73.9811 56.5933 73.9811 56.9801 74.2391 57.238C74.4326 57.4959 75.0131 57.5604 75.787 57.5604V57.9472H71.1432V57.5604C71.5302 57.5604 71.8527 57.5604 72.1107 57.4959C72.3687 57.4314 72.5622 57.3669 72.6912 57.238C72.8202 57.1091 72.9492 56.9156 73.0782 56.7222C73.2072 56.5288 73.3361 56.2064 73.4651 55.8841L77.7864 45.8262H78.0444L82.4302 55.8841C82.5592 56.2064 82.6882 56.5288 82.8172 56.7222C82.9462 56.9801 83.0752 57.1091 83.2042 57.238C83.3332 57.3669 83.5267 57.4314 83.7846 57.4959C84.0426 57.5604 84.3651 57.5604 84.7521 57.5604V57.9472H79.2699V57.5604C80.1083 57.5604 80.6243 57.4314 80.8178 57.238C81.0113 56.9801 81.0113 56.5933 80.8178 56.0775L79.8503 53.8854H75.1421L74.2391 56.0775ZM77.5284 48.3406L75.4645 53.1117H79.5923L77.5284 48.3406Z" fill="black"/>
<path d="M97.0708 48.8563C97.0708 48.3405 97.0708 47.9537 97.0063 47.6313C96.9418 47.3089 96.8773 47.1155 96.7483 46.9221C96.6193 46.7287 96.4259 46.6642 96.1679 46.5997C95.9099 46.5353 95.5874 46.5353 95.2004 46.5353V46.1484H99.7152V46.5353C99.3282 46.5353 99.0057 46.5353 98.7478 46.5997C98.4898 46.6642 98.2963 46.7287 98.1673 46.9221C98.0383 47.1155 97.9738 47.3089 97.9093 47.6313C97.8448 47.9537 97.8448 48.3405 97.8448 48.8563V58.3339H97.3933L89.3312 48.405V55.3037C89.3312 55.8195 89.3312 56.2063 89.3957 56.4642C89.4602 56.7866 89.5247 56.98 89.6537 57.1734C89.7827 57.3668 89.9762 57.4313 90.2342 57.4958C90.4921 57.5603 90.8146 57.5603 91.2016 57.5603V57.9471H86.6868V57.5603C87.0738 57.5603 87.3963 57.5603 87.6543 57.4958C87.9123 57.4313 88.1058 57.3024 88.2348 57.1734C88.3637 56.98 88.4282 56.7866 88.4927 56.4642C88.5572 56.1418 88.5572 55.755 88.5572 55.3037V48.8563C88.5572 48.3405 88.5572 47.9537 88.4927 47.6313C88.4282 47.3089 88.3637 47.1155 88.2348 46.9221C88.1058 46.7287 87.9123 46.6642 87.6543 46.5997C87.3963 46.5353 87.0738 46.5353 86.6868 46.5353V46.1484H89.4602L97.0708 55.5616V48.8563Z" fill="black"/>
<path d="M111.518 54.7881C111.518 54.3368 111.389 54.0144 111.131 53.821C110.873 53.6276 110.357 53.4986 109.712 53.4986V53.1118H114.872V53.4986C114.485 53.4986 114.163 53.4986 113.905 53.5631C113.647 53.6276 113.453 53.7565 113.324 53.8855C113.195 54.0789 113.131 54.2723 113.066 54.5947C113.002 54.9171 113.002 55.3039 113.002 55.8197V57.3026C112.421 57.3026 111.97 57.3671 111.583 57.4315C111.196 57.5605 110.809 57.6894 110.422 57.7539C110.035 57.8829 109.648 58.0118 109.261 58.0763C108.874 58.2052 108.422 58.2052 107.906 58.2052C107.068 58.2052 106.294 58.0118 105.585 57.6894C104.875 57.3671 104.23 56.9157 103.65 56.3355C103.069 55.7552 102.682 55.1105 102.36 54.3368C102.037 53.5631 101.908 52.7894 101.908 51.8868C101.908 51.0486 102.037 50.2105 102.36 49.4368C102.682 48.6631 103.134 48.0184 103.65 47.4381C104.23 46.8578 104.875 46.4065 105.585 46.0842C106.294 45.7618 107.132 45.5684 107.906 45.5684C108.616 45.5684 109.261 45.6973 109.906 46.0197C110.551 46.2776 111.067 46.7289 111.583 47.2447C111.712 47.1157 111.841 46.9868 111.97 46.7934C112.099 46.6 112.228 46.3421 112.228 46.1486H112.615V50.4684H112.228C111.97 49.1789 111.454 48.1473 110.744 47.4381C110.035 46.7289 109.067 46.3421 107.971 46.3421C107.197 46.3421 106.487 46.5355 105.972 46.8578C105.456 47.1802 105.004 47.6315 104.617 48.1473C104.295 48.6631 104.037 49.2434 103.843 49.8881C103.65 50.5328 103.585 51.1776 103.585 51.7578C103.585 52.3381 103.65 52.9828 103.779 53.6276C103.908 54.2723 104.166 54.8526 104.553 55.3684C104.94 55.8842 105.391 56.3355 105.972 56.6578C106.552 56.9802 107.326 57.1736 108.229 57.1736C108.68 57.1736 109.067 57.1092 109.454 56.9802C109.841 56.8513 110.164 56.7223 110.486 56.4644C110.809 56.271 111.002 55.9486 111.196 55.6263C111.454 55.6263 111.518 55.2394 111.518 54.7881Z" fill="black"/>
<path d="M119.516 55.2392C119.516 55.755 119.516 56.1418 119.58 56.3997C119.645 56.7221 119.709 56.9155 119.838 57.1089C119.967 57.3024 120.161 57.3668 120.419 57.4313C120.677 57.4958 120.999 57.4958 121.386 57.4958V57.9471H116.033V57.5603C116.42 57.5603 116.743 57.5603 117.001 57.4958C117.259 57.4313 117.452 57.3024 117.581 57.1734C117.71 56.98 117.774 56.7866 117.839 56.4642C117.903 56.1418 117.903 55.755 117.903 55.3037V48.8563C117.903 48.3405 117.903 47.9537 117.839 47.6313C117.774 47.3089 117.71 47.1155 117.581 46.9221C117.452 46.7287 117.259 46.6642 117.001 46.5997C116.743 46.5353 116.42 46.5353 116.033 46.5353V46.1484H121.386V46.5353C120.999 46.5353 120.677 46.5353 120.419 46.5997C120.161 46.6642 119.967 46.7287 119.838 46.9221C119.709 47.1155 119.645 47.3089 119.58 47.6313C119.516 47.9537 119.516 48.3405 119.516 48.8563V51.3708H126.224V48.8563C126.224 48.3405 126.224 47.9537 126.159 47.6313C126.095 47.3089 126.03 47.1155 125.901 46.9221C125.772 46.7287 125.579 46.6642 125.321 46.5997C125.063 46.5353 124.74 46.5353 124.353 46.5353V46.1484H129.706V46.5353C129.319 46.5353 128.997 46.5353 128.739 46.5997C128.481 46.6642 128.287 46.7287 128.158 46.9221C128.03 47.1155 127.901 47.3089 127.901 47.6313C127.836 47.9537 127.836 48.3405 127.836 48.8563V55.3037C127.836 55.8195 127.836 56.2063 127.901 56.4642C127.965 56.7866 128.03 56.98 128.158 57.1734C128.287 57.3668 128.481 57.4313 128.739 57.4958C128.997 57.5603 129.319 57.5603 129.706 57.5603V57.9471H124.353V57.5603C124.74 57.5603 125.063 57.5603 125.321 57.4958C125.579 57.4313 125.772 57.3024 125.901 57.1734C126.03 56.98 126.095 56.7866 126.159 56.4642C126.224 56.1418 126.224 55.755 126.224 55.3037V52.08H119.516V55.2392Z" fill="black"/>
<path d="M134.608 56.0775C134.35 56.5933 134.35 56.9801 134.608 57.238C134.801 57.4959 135.382 57.5604 136.156 57.5604V57.9472H131.512V57.5604C131.899 57.5604 132.221 57.5604 132.479 57.4959C132.737 57.4314 132.931 57.3669 133.06 57.238C133.189 57.1091 133.318 56.9156 133.447 56.7222C133.576 56.5288 133.705 56.2064 133.834 55.8841L138.155 45.8262H138.413L142.799 55.8841C142.928 56.2064 143.057 56.5288 143.186 56.7222C143.315 56.9801 143.444 57.1091 143.573 57.238C143.702 57.3669 143.895 57.4314 144.153 57.4959C144.411 57.5604 144.734 57.5604 145.121 57.5604V57.9472H139.639V57.5604C140.477 57.5604 140.993 57.4314 141.187 57.238C141.38 56.9801 141.38 56.5933 141.187 56.0775L140.219 53.8854H135.446L134.608 56.0775ZM137.962 48.3406L135.898 53.1117H140.026L137.962 48.3406Z" fill="black"/>
<path d="M149.7 55.2392C149.7 55.755 149.7 56.1418 149.765 56.3997C149.829 56.7221 149.894 56.9155 150.023 57.1089C150.152 57.3024 150.345 57.3668 150.603 57.4313C150.861 57.4958 151.183 57.4958 151.57 57.4958V57.9471H147.056V57.5603C147.443 57.5603 147.765 57.5603 148.023 57.4958C148.281 57.4313 148.475 57.3024 148.604 57.1734C148.733 56.98 148.797 56.7866 148.862 56.4642C148.926 56.1418 148.926 55.755 148.926 55.3037V48.8563C148.926 48.3405 148.926 47.9537 148.862 47.6313C148.797 47.3089 148.733 47.1155 148.604 46.9221C148.475 46.7287 148.281 46.6642 148.023 46.5997C147.765 46.5353 147.443 46.5353 147.056 46.5353V46.1484H150.41L154.602 55.755L158.794 46.1484H161.89V46.5353C161.503 46.5353 161.181 46.5353 160.923 46.5997C160.665 46.6642 160.471 46.7287 160.342 46.9221C160.213 47.1155 160.084 47.3089 160.084 47.6313C160.02 47.9537 160.02 48.3405 160.02 48.8563V55.3037C160.02 55.8195 160.02 56.2063 160.084 56.4642C160.149 56.7866 160.213 56.98 160.342 57.1734C160.471 57.3668 160.665 57.4313 160.923 57.4958C161.181 57.5603 161.503 57.5603 161.89 57.5603V57.9471H156.537V57.5603C156.924 57.5603 157.246 57.5603 157.504 57.4958C157.762 57.4313 157.956 57.3024 158.085 57.1734C158.214 56.98 158.278 56.7866 158.343 56.4642C158.407 56.1418 158.407 55.755 158.407 55.3037V48.8563L154.279 58.3339H154.021L149.636 48.2116L149.7 55.2392Z" fill="black"/>
</svg>
