<svg width="172" height="102" viewBox="0 0 172 102" fill="none" xmlns="http://www.w3.org/2000/svg">
<path fill-rule="evenodd" clip-rule="evenodd" d="M169.302 61.1918H169.673V60.0348L170.153 60.7857H170.187L170.667 60.0348V61.1918H171.038V59.4795H170.633L170.175 60.2018L169.718 59.4795H169.302V61.1918ZM168.022 61.1919H168.415V59.8239H168.935V59.4796H167.503V59.8239H168.022V61.1919Z" fill="black"/>
<path fill-rule="evenodd" clip-rule="evenodd" d="M50.3259 66.8366V63.8839H47.438V66.8366H45.8724V59.4805H47.438V62.3917H50.3259V59.4805H51.8916V66.8366H50.3259Z" fill="black"/>
<path fill-rule="evenodd" clip-rule="evenodd" d="M63.296 63.1598C63.296 61.8986 62.4014 60.8481 61.1405 60.8481C59.8801 60.8481 59.0056 61.8774 59.0056 63.1386V63.1598C59.0056 64.421 59.8998 65.4716 61.1611 65.4716C62.422 65.4716 63.296 64.4418 63.296 63.1806V63.1598ZM61.1404 66.9638C58.9441 66.9638 57.3679 65.2718 57.3679 63.1802V63.1594C57.3679 61.0682 58.9647 59.3555 61.161 59.3555C63.3569 59.3555 64.9326 61.0474 64.9326 63.1382V63.1594C64.9326 65.2506 63.3367 66.9638 61.1404 66.9638Z" fill="black"/>
<path fill-rule="evenodd" clip-rule="evenodd" d="M73.3268 60.9736V66.8375H71.7616V60.9736H69.5956V59.4814H75.4924V60.9736H73.3268Z" fill="black"/>
<path fill-rule="evenodd" clip-rule="evenodd" d="M81.3556 66.8366V59.4805H86.7244V60.9199H82.9112V62.4125H86.2666V63.8523H82.9112V65.3968H86.7749V66.8366H81.3556Z" fill="black"/>
<path fill-rule="evenodd" clip-rule="evenodd" d="M92.8311 66.8366V59.4805H94.3971V65.3657H97.9455V66.8366H92.8311Z" fill="black"/>
<path fill-rule="evenodd" clip-rule="evenodd" d="M113.767 66.9634C111.551 66.9634 110.026 65.3553 110.026 63.1798V63.159C110.026 61.0683 111.602 59.3555 113.757 59.3555C115.038 59.3555 115.811 59.7123 116.553 60.3641L115.567 61.5933C115.018 61.1202 114.53 60.8472 113.706 60.8472C112.568 60.8472 111.663 61.8879 111.663 63.1383V63.159C111.663 64.5041 112.557 65.4924 113.819 65.4924C114.388 65.4924 114.896 65.3454 115.293 65.0508V63.9998H113.717V62.6024H116.808V65.7969C116.076 66.4379 115.069 66.9634 113.767 66.9634Z" fill="black"/>
<path fill-rule="evenodd" clip-rule="evenodd" d="M127.618 61.9937C127.618 61.3003 127.15 60.9427 126.388 60.9427H124.832V63.055H126.418C127.181 63.055 127.618 62.6351 127.618 62.0148V61.9937ZM127.587 66.8375L126.062 64.4834H124.832V66.8375H123.266V59.4814H126.52C128.197 59.4814 129.204 60.3957 129.204 61.9091V61.9298C129.204 63.1175 128.584 63.8636 127.679 64.2104L129.418 66.8375H127.587Z" fill="black"/>
<path fill-rule="evenodd" clip-rule="evenodd" d="M140.603 63.1598C140.603 61.8986 139.708 60.8481 138.447 60.8481C137.187 60.8481 136.312 61.8774 136.312 63.1386V63.1598C136.312 64.421 137.206 65.4716 138.468 65.4716C139.729 65.4716 140.603 64.4418 140.603 63.1806V63.1598ZM138.447 66.9637C136.251 66.9637 134.675 65.2718 134.675 63.1801V63.1594C134.675 61.0682 136.272 59.3555 138.468 59.3555C140.664 59.3555 142.24 61.0474 142.24 63.1382V63.1594C142.24 65.2506 140.644 66.9637 138.447 66.9637Z" fill="black"/>
<path fill-rule="evenodd" clip-rule="evenodd" d="M150.975 66.953C149.064 66.953 147.895 65.8497 147.895 63.6849V59.4814H149.46V63.643C149.46 64.841 150.039 65.4608 150.996 65.4608C151.951 65.4608 152.531 64.8618 152.531 63.6953V59.4814H154.096V63.6322C154.096 65.8605 152.887 66.953 150.975 66.953Z" fill="black"/>
<path fill-rule="evenodd" clip-rule="evenodd" d="M164.113 62.0568C164.113 61.3319 163.625 60.9427 162.842 60.9427H161.632V63.1917H162.873C163.655 63.1917 164.113 62.7082 164.113 62.0776V62.0568ZM162.821 64.6304H161.632V66.8375H160.066V59.4814H162.974C164.672 59.4814 165.699 60.522 165.699 62.025V62.0457C165.699 63.7477 164.417 64.6304 162.821 64.6304Z" fill="black"/>
<path fill-rule="evenodd" clip-rule="evenodd" d="M45.8724 55.7994H165.36V55.3398H45.8724V55.7994Z" fill="black"/>
<path fill-rule="evenodd" clip-rule="evenodd" d="M67.7432 34.4873L60.4908 51.6446H63.7909L65.4509 47.6179H72.8354L74.4729 51.6446H77.8661L70.614 34.4873H67.7432ZM71.649 44.6617H66.6376L69.133 38.6433L71.649 44.6617Z" fill="black"/>
<path fill-rule="evenodd" clip-rule="evenodd" d="M85.8015 34.6055H79.6011V51.6438H85.8015C90.8756 51.6438 94.5591 48.051 94.5591 43.1009C94.5591 38.1785 90.8756 34.6055 85.8015 34.6055ZM91.2203 43.1494C91.2203 46.4192 89.0432 48.6164 85.8014 48.6164H82.8021V37.6345H85.8014C88.9919 37.6345 91.2203 39.9021 91.2203 43.1494Z" fill="black"/>
<path fill-rule="evenodd" clip-rule="evenodd" d="M139.841 34.3193C134.914 34.3193 131.198 38.115 131.198 43.1486C131.198 48.1549 134.894 51.9298 139.795 51.9298C144.722 51.9298 148.438 48.1341 148.438 43.101C148.438 38.0947 144.742 34.3193 139.841 34.3193ZM145.099 43.1487C145.099 46.415 142.839 48.8782 139.841 48.8782C136.817 48.8782 134.536 46.3947 134.536 43.1011C134.536 39.8348 136.797 37.3717 139.795 37.3717C142.819 37.3717 145.099 39.8551 145.099 43.1487Z" fill="black"/>
<path fill-rule="evenodd" clip-rule="evenodd" d="M59.4235 40.075C59.4235 36.7014 57.057 34.6055 53.2472 34.6055H45.8729V51.6438H49.0726V45.8304H52.3434L56.3084 51.6438H60.0927L55.6812 45.25C58.0977 44.4737 59.4235 42.6446 59.4235 40.075ZM56.1776 40.2419C56.1776 41.8651 54.9746 42.8732 53.0397 42.8732H49.0725V37.6334H53.0173C55.0544 37.6334 56.1776 38.5598 56.1776 40.2419Z" fill="black"/>
<path fill-rule="evenodd" clip-rule="evenodd" d="M97.2156 51.6447H100.415V34.6064H97.2156V51.6447Z" fill="black"/>
<path fill-rule="evenodd" clip-rule="evenodd" d="M110.237 41.6171C107.105 40.8438 106.549 40.2975 106.549 39.1466C106.549 38.0567 107.531 37.3249 108.994 37.3249C110.401 37.3249 111.798 37.8733 113.262 39.0021L113.415 39.1207L115.139 36.6112L115.014 36.507C113.279 35.0676 111.324 34.3682 109.04 34.3682C105.689 34.3682 103.348 36.4408 103.348 39.4087C103.348 42.5885 105.368 43.7152 108.859 44.5867C111.856 45.3021 112.362 45.9046 112.362 46.9859C112.362 48.1826 111.337 48.9265 109.685 48.9265C107.862 48.9265 106.375 48.292 104.714 46.8046L104.57 46.6762L102.638 49.052L102.76 49.1657C104.687 50.9433 107.057 51.8832 109.617 51.8832C113.228 51.8832 115.562 49.8482 115.562 46.6995C115.562 44.04 114.019 42.5678 110.237 41.6171Z" fill="black"/>
<path fill-rule="evenodd" clip-rule="evenodd" d="M124.186 41.618C121.055 40.8446 120.497 40.2984 120.497 39.1475C120.497 38.0576 121.48 37.3257 122.943 37.3257C124.35 37.3257 125.747 37.8742 127.21 39.003L127.364 39.1215L129.087 36.6121L128.962 36.5079C127.228 35.0685 125.274 34.3691 122.989 34.3691C119.637 34.3691 117.297 36.4417 117.297 39.4096C117.297 42.5894 119.317 43.7161 122.808 44.5876C125.805 45.303 126.311 45.9055 126.311 46.9867C126.311 48.1835 125.285 48.9274 123.634 48.9274C121.812 48.9274 120.324 48.2929 118.662 46.8055L118.519 46.677L116.586 49.0528L116.709 49.1666C118.635 50.9442 121.006 51.884 123.565 51.884C127.177 51.884 129.511 49.8491 129.511 46.7004C129.511 44.0409 127.968 42.5686 124.186 41.618Z" fill="black"/>
<path fill-rule="evenodd" clip-rule="evenodd" d="M162.207 34.6064V45.7725L153.891 34.679L153.836 34.6064H150.933V51.6447H154.087V40.1447L162.657 51.5716L162.712 51.6447H165.36V34.6064H162.207Z" fill="black"/>
<path fill-rule="evenodd" clip-rule="evenodd" d="M32.2253 57.4113C28.1125 57.4113 25.0584 54.6233 25.0584 50.6793V50.6416C25.0584 46.8459 28.0753 43.872 32.1495 43.872H35.2909C32.5424 36.9276 25.7092 32 17.6946 32C9.58033 32 2.68004 37.0517 0 44.1319H4.86099C6.87968 44.1319 8.27474 44.6531 9.16107 45.5263C9.93337 46.2884 10.3285 47.2728 10.3285 48.5578V48.595C10.3285 50.6053 9.25536 51.9253 7.61514 52.6121L10.7631 57.1513H6.55953L3.89835 53.2073H2.27525V57.1513H0C2.68004 64.2315 9.58033 69.2832 17.6946 69.2832C25.9368 69.2832 32.9279 64.0706 35.5132 56.814C34.5462 57.1859 33.4498 57.4113 32.2253 57.4113ZM23.701 57.1513H20.0439V52.2025H15.3447V57.1513H11.6876V44.1319H15.3447V49.0059H20.0439V44.1319H23.701V57.1513Z" fill="black"/>
<path fill-rule="evenodd" clip-rule="evenodd" d="M6.67207 48.8379V48.8003C6.67207 47.7575 5.89889 47.2363 4.69066 47.2363H2.27551V50.3828H4.70952C5.93661 50.3828 6.67207 49.7868 6.67207 48.8379Z" fill="black"/>
<path fill-rule="evenodd" clip-rule="evenodd" d="M34.4895 52.1836V53.7662C33.9623 54.1208 33.2826 54.3068 32.3769 54.3068C30.2824 54.3068 28.7908 52.7986 28.7908 50.6789V50.6409C28.7908 48.6509 30.2631 47.0869 32.1695 47.0869H36.2437C36.4016 47.8875 36.4911 48.7101 36.5402 49.5449H31.9055V52.1836H34.4895Z" fill="black"/>
<path fill-rule="evenodd" clip-rule="evenodd" d="M45.8807 55.7854H165.352V55.3262H45.8807V55.7854Z" fill="black"/>
</svg>
