<svg width="172" height="102" viewBox="0 0 172 102" fill="none" xmlns="http://www.w3.org/2000/svg">
<path fill-rule="evenodd" clip-rule="evenodd" d="M17.9999 77V51.5V26H86.4146H154.829V51.5V77H86.4146H17.9999ZM152.543 74.7041V51.5003V28.2965H86.4147H20.2866L20.3107 51.4641L20.3468 74.6437L86.4508 74.68L152.543 74.7041Z" fill="black"/>
<path d="M29.7932 38.3762V39.0288L30.3107 39.1134C30.5875 39.1496 30.9966 39.2222 31.2133 39.2584L31.5983 39.3188L31.5743 51.4887L31.5382 63.6466L30.6717 63.7432L29.7932 63.852V64.565V65.2781H34.3662H38.9392V64.565V63.852L38.0728 63.7432L37.1943 63.6466L37.1582 58.1115L37.1341 52.5885H43.1512H49.1683V58.0752C49.1683 62.6556 49.1443 63.5741 48.9999 63.6224C48.9036 63.6586 48.4463 63.7312 47.9769 63.7795L47.1225 63.8641V64.565V65.2781H51.8159H56.5092V64.565V63.852L55.7029 63.7674C55.2697 63.7191 54.8365 63.6586 54.7402 63.6224C54.6078 63.5741 54.5837 61.3987 54.5837 51.4404V39.3188L55.0651 39.2463C55.3299 39.2101 55.7631 39.1376 56.0278 39.1013L56.5092 39.0288V38.3762V37.7236H51.8159H47.1225V38.3762V39.0288L47.7002 39.1013C48.013 39.1496 48.4703 39.2101 48.7231 39.2463L49.1683 39.3188V44.5034V49.688H43.1512H37.1341V44.5034V39.3188L37.6516 39.2342C39.0716 39.0167 38.9392 39.1013 38.9392 38.3762V37.7236H34.3662H29.7932V38.3762Z" fill="black"/>
<path d="M63.5975 38.0606C61.0943 39.3658 62.0932 43.1606 64.9333 43.1606C65.7877 43.1606 66.4496 42.8463 67.0032 42.2058C67.9057 41.1423 67.9057 39.7404 66.9911 38.6769C66.1487 37.6738 64.7889 37.4321 63.5975 38.0606Z" fill="black"/>
<path d="M72.9964 38.3158V38.9079L73.8147 39.0046L74.621 39.1134L74.6571 51.4646L74.6812 63.8037L74.3563 63.8762C74.1637 63.9124 73.7907 63.9729 73.5139 64.0091L72.9964 64.0937V64.6859V65.2781H77.2686H81.5407V64.6859V64.0937L81.0353 64.0091C80.7464 63.9729 80.3734 63.9124 80.1929 63.8762L79.8559 63.8037V50.7636V37.7236H76.4262H72.9964V38.3158Z" fill="black"/>
<path d="M89.5196 40.7927L87.0767 41.5299V43.6086V45.6994H85.2114H83.3461V46.6058V47.5122H85.1392H86.9443L86.9804 54.8479C87.0285 63.0176 87.0285 62.933 87.8589 64.0932C89.1225 65.8335 92.9013 66.0148 97.4021 64.5404L98.1482 64.2866V63.6219V62.9572L97.7872 63.0418C97.5826 63.0901 96.7281 63.1264 95.8857 63.1264C93.6955 63.1385 92.9975 62.8726 92.468 61.797L92.1912 61.229L92.1551 54.3645L92.119 47.5122H94.4176H96.7041V46.6058V45.6994H94.4176H92.1311V42.8593C92.1311 41.3003 92.095 40.0193 92.0468 40.0313C91.9867 40.0434 90.8554 40.3818 89.5196 40.7927Z" fill="black"/>
<path fill-rule="evenodd" clip-rule="evenodd" d="M102.697 47.3181C103.96 46.315 106.211 45.4085 108.016 45.1668C108.244 45.1426 109.195 45.1306 110.122 45.1547C112.204 45.2152 113.419 45.4931 114.996 46.2666C115.922 46.7379 116.319 47.016 117.102 47.8136C118.245 48.9617 118.75 49.7714 119.28 51.3546C119.797 52.8773 119.978 54.3155 119.894 56.2129C119.761 59.198 118.859 61.3129 116.921 63.1378C114.875 65.0714 112.059 65.9899 108.617 65.8328C105.356 65.6998 103.202 64.9263 101.638 63.3431C100.326 62.0138 99.676 60.624 99.2789 58.3762C99.0021 56.7688 99.0984 53.7596 99.4714 52.406C100.025 50.3878 101.216 48.5025 102.697 47.3181ZM113.251 49.2635C112.553 47.7408 111.59 46.9311 110.182 46.6652C109.472 46.5323 109.364 46.5323 108.654 46.6652C106.367 47.1244 105.08 49.4448 104.767 53.7351C104.454 58.0133 105.2 61.6631 106.728 63.2342C107.462 64.0076 108.329 64.346 109.52 64.3339C112.806 64.3218 114.274 61.5905 114.274 55.5357C114.274 52.5023 114.009 50.9071 113.251 49.2635Z" fill="black"/>
<path d="M134.876 45.3486C133.372 45.542 131.519 46.3759 129.942 47.5723C129.461 47.9349 129.004 48.237 128.943 48.237C128.883 48.237 128.835 47.669 128.835 46.968V45.6991H125.405H121.976V46.3517V47.0043L122.553 47.0768C122.866 47.1251 123.263 47.1856 123.456 47.2218L123.781 47.2943V55.5486V63.8029L123.095 63.8754C121.976 64.0083 121.976 64.0083 121.976 64.6851V65.2773H126.308H130.64V64.673C130.64 64.3346 130.604 64.0687 130.556 64.0567C130.496 64.0446 130.111 63.9842 129.678 63.8996L128.895 63.7666V56.7571V49.7477L129.497 49.3488C129.834 49.1313 130.532 48.7808 131.061 48.5754C131.892 48.237 132.169 48.1887 133.107 48.1766C134.299 48.1766 134.852 48.382 135.478 49.0467C136.429 50.0498 136.561 51.1737 136.513 58.2678L136.477 63.7666L135.695 63.8996C135.261 63.9842 134.876 64.0446 134.828 64.0567C134.768 64.0687 134.732 64.3346 134.732 64.673V65.2773H139.064H143.397V64.6851C143.397 64.0083 143.397 64.0083 142.289 63.8875L141.603 63.8029L141.567 56.7692C141.531 49.8081 141.519 49.7356 141.242 48.9017C140.869 47.7536 140.508 47.1614 139.786 46.5088C139.076 45.8683 138.174 45.4936 136.97 45.3365C136.008 45.2036 135.923 45.2036 134.876 45.3486Z" fill="black"/>
<path d="M60.6011 46.2914V46.8835L61.1787 46.9561C61.4916 47.0044 61.8887 47.0648 62.0813 47.1011L62.4062 47.1736L62.3821 55.4641L62.346 63.7667L61.5638 63.8997C61.1306 63.9843 60.7455 64.0447 60.6973 64.0568C60.6372 64.0688 60.6011 64.3347 60.6011 64.6731V65.2774H64.9454H69.2778L69.2417 64.7215C69.1935 64.0568 69.1093 63.9843 68.1586 63.8876L67.4606 63.8151V54.7511V45.6992H64.0308H60.6011V46.2914Z" fill="black"/>
</svg>
