<svg width="172" height="102" viewBox="0 0 172 102" fill="none" xmlns="http://www.w3.org/2000/svg">
<path d="M41.2701 62.7002H42.4722V65.546H45.6492V62.7002H46.8513V69.5129H45.6492V66.6671H42.3864V69.5129H41.1843V62.7002H41.2701Z" fill="black"/>
<path fill-rule="evenodd" clip-rule="evenodd" d="M53.892 62.6133C51.7454 62.6133 50.2858 64.1655 50.2858 66.149C50.2858 68.0462 51.7454 69.5985 53.8062 69.6847C55.9528 69.6847 57.4124 68.0462 57.4124 66.149C57.4124 64.1655 55.9528 62.6133 53.892 62.6133ZM53.8061 63.7342C55.1799 63.7342 56.1244 64.7691 56.1244 66.1489C56.1244 67.4424 55.1799 68.5635 53.8061 68.5635C52.4323 68.5635 51.4878 67.4424 51.4878 66.1489C51.4878 64.8553 52.4323 63.7342 53.8061 63.7342Z" fill="black"/>
<path d="M62.0491 63.8213H59.9025V62.7002H65.3978V63.8213H63.2512V69.5129H62.0491V63.8213Z" fill="black"/>
<path d="M68.6603 62.7002H73.7263V63.7351H69.8624V65.546H73.297V66.5809H69.8624V68.4781H73.7263V69.5129H68.6603V62.7002Z" fill="black"/>
<path d="M77.0751 62.7002H78.2772V68.4781H81.8834V69.5992H77.0751V62.7002Z" fill="black"/>
<path d="M89.6111 66.149C89.6111 64.2518 91.0708 62.6133 93.1315 62.6133C94.3336 62.6133 95.0205 62.9582 95.7074 63.5619L94.9346 64.5105C94.4194 64.0793 93.9043 63.8206 93.0456 63.8206C91.7577 63.8206 90.8132 64.9417 90.8132 66.2352C90.8132 67.615 91.7577 68.6499 93.1315 68.6499C93.7325 68.6499 94.3336 68.4774 94.7629 68.1324V66.7527H93.0456V65.7178H95.965V68.5636C95.2781 69.1673 94.3336 69.5985 93.1315 69.5985C90.9849 69.5985 89.6111 68.1324 89.6111 66.149Z" fill="black"/>
<path fill-rule="evenodd" clip-rule="evenodd" d="M102.491 62.7002H99.5717V69.5129H100.774V67.0983H102.233L103.865 69.5129H105.239L103.436 66.9258C104.38 66.6671 105.067 65.9772 105.067 64.8561C105.067 64.2525 104.809 63.7351 104.466 63.3901C104.037 62.9589 103.35 62.7002 102.491 62.7002ZM103.779 64.9425C103.779 65.6324 103.264 66.0636 102.405 66.0636V66.1498H100.688V63.8214H102.405C103.264 63.8214 103.779 64.2526 103.779 64.9425Z" fill="black"/>
<path fill-rule="evenodd" clip-rule="evenodd" d="M111.764 62.6133C109.617 62.6133 108.158 64.1655 108.158 66.149C108.158 68.0462 109.617 69.5985 111.678 69.6847C113.825 69.6847 115.284 68.0462 115.284 66.149C115.284 64.1655 113.825 62.6133 111.764 62.6133ZM111.678 63.7342C113.052 63.7342 113.996 64.7691 113.996 66.1489C113.996 67.4424 113.052 68.5635 111.678 68.5635C110.304 68.5635 109.36 67.4424 109.36 66.1489C109.36 64.8553 110.304 63.7342 111.678 63.7342Z" fill="black"/>
<path d="M118.548 66.5802V62.6133H119.75V66.4939C119.75 67.7875 120.437 68.4774 121.467 68.4774C122.497 68.4774 123.184 67.8737 123.184 66.5802V62.6133H124.386V66.4939C124.386 68.5636 123.27 69.5985 121.467 69.5985C119.664 69.5985 118.548 68.5636 118.548 66.5802Z" fill="black"/>
<path fill-rule="evenodd" clip-rule="evenodd" d="M130.569 62.7012H127.907H127.821V69.4277H129.023V67.2718H130.397C131.942 67.2718 133.145 66.4956 133.145 64.9434C133.145 63.6498 132.114 62.7012 130.569 62.7012ZM131.942 65.0288C131.942 65.7187 131.427 66.2361 130.482 66.2361V66.3223H129.108V63.8214H130.482C131.341 63.8214 131.942 64.2526 131.942 65.0288Z" fill="black"/>
<path d="M29.7641 32L25.5568 44.8493L21.4354 32.0862H18.1725L24.183 49.4199H26.7589L30.9662 37.088L35.1735 49.4199H37.7495L43.7599 32.0862H40.583L36.4615 44.8493L32.2542 32H29.7641Z" fill="black"/>
<path d="M57.7558 32.0859L52.9475 39.6748L48.1391 32.0859H44.6187L51.4019 42.5206V49.3333H54.4072V42.4344L61.2763 32.0859H57.7558Z" fill="black"/>
<path d="M74.9284 32.0859V43.9866L65.741 32.0859H62.9075V49.3333H65.9128V37.0877L75.3578 49.3333H77.8478V32.0859H74.9284Z" fill="black"/>
<path fill-rule="evenodd" clip-rule="evenodd" d="M88.1518 32.0859H81.7979V49.3333H88.1518C93.5612 49.3333 97.2534 45.5389 97.2534 40.7096V40.6234C97.2534 35.7941 93.5612 32.0859 88.1518 32.0859ZM94.0762 40.796C94.0762 44.1593 91.7579 46.5739 88.1516 46.5739H84.8029V34.8457H88.1516C91.7579 34.8457 94.0762 37.3465 94.0762 40.7098V40.796Z" fill="black"/>
<path d="M100.43 32.0859H103.521V39.2436H111.678V32.0859H114.683V49.3333H111.678V42.0894H103.521V49.3333H100.43V32.0859Z" fill="black"/>
<path fill-rule="evenodd" clip-rule="evenodd" d="M127.477 32H124.644L117.173 49.3336H120.265L122.068 45.1943H130.139L131.856 49.3336H135.033L127.477 32ZM126.017 35.5352L129.022 42.4342H123.098L126.017 35.5352Z" fill="black"/>
<path d="M137.008 32.0859H140.185L145.423 40.1922L150.66 32.0859H153.837V49.3333H150.832V37.0014L145.423 45.1077H145.337L139.927 37.0014V49.3333H137.008V32.0859Z" fill="black"/>
<path fill-rule="evenodd" clip-rule="evenodd" d="M1 59.5955C1 59.5955 24.0973 52.3516 85.8333 52.3516C147.999 52.3516 171.01 59.5093 171.01 59.5093C171.01 59.5093 142.847 54.5938 85.8333 54.5938C28.8198 54.5938 1 59.5955 1 59.5955Z" fill="black"/>
</svg>
